# xmcd
#
# Track frame offsets: 
#        150
#        27232
#        57345
#        85325
#        100310
#        121547
#        149000
#        164867
#        184842
#        217925
#        233885
#        261680
#        287485
#        305220
#        321915
#
# Disc length: 4472 seconds
#
# Revision: 3
# Processed by: cddbd v1.5.2PL0 Copyright (c) Steve Scherf et al.
# Submitted via: ExactAudioCopy v0.99pb4
#
DISCID=e811760f
DTITLE=Jimmy Dawkins - Born In Poverty
DYEAR=1999
DGENRE=Blues
TTITLE0=Off Business take 2
TTITLE1=Mississippi Bound
TTITLE2=You've Got To Keep On Tryin'
TTITLE3=Ain't Never Had Nothing
TTITLE4=Born In Poverty
TTITLE5=Marcelle Morgantini's Cassoulet
TTITLE6=Your Love
TTITLE7=Tribute To Orange
TTITLE8=Off Business
TTITLE9=Instrumental Shuffle 
TTITLE10=Life Is A Mean Mistreater
TTITLE11=Mean Atlantic Ocean
TTITLE12=Marcelle. Jacques et Luc
TTITLE13=It Serves You Right To Suffer
TTITLE14=Ode To Billy Joe
EXTD=Black and Blue BB429.2 (compilation album) YEAR: 1999
EXTT0=
EXTT1=
EXTT2=
EXTT3=
EXTT4=
EXTT5=
EXTT6=
EXTT7=
EXTT8=unissued before
EXTT9=
EXTT10=
EXTT11=
EXTT12=
EXTT13=
EXTT14=
PLAYORDER=
